<svg id="Capa_1" enable-background="new 0 0 512 512" height="512" viewBox="0 0 512 512" width="512" xmlns="http://www.w3.org/2000/svg"><g><g><g><g><g><g><g><g><g><path d="m504.5 67.5v407c0 16.569-13.431 30-30 30h-437c-16.569 0-30-13.431-30-30v-407z" fill="#eaf6ff"/><path d="m474.5 67.5v407c0 16.569-13.431 30-30 30h30c16.569 0 30-13.431 30-30v-407z" fill="#d8ecfe"/><path d="m474.5 7.5h-437c-16.569 0-30 13.431-30 30v30h497v-30c0-16.569-13.431-30-30-30z" fill="#3f6e90"/><path d="m474.5 7.5h-30c16.569 0 30 13.431 30 30v30h30v-30c0-16.569-13.431-30-30-30z" fill="#355f7f"/></g></g></g></g></g></g></g><g><g><path d="m294.767 314.208h42.2v73.147h-42.2z" fill="#3f6e90" transform="matrix(.707 -.707 .707 .707 -155.525 326.093)"/><path d="m415.974 450.89c14.098-14.098 14.098-36.955 0-51.053l-48.117-48.117c-6.191-6.191-16.227-6.191-22.418 0l-28.635 28.635c-6.191 6.191-6.191 16.227 0 22.418l48.117 48.117c14.098 14.097 36.956 14.097 51.053 0z" fill="#aee49e"/><path d="m415.975 399.836-48.117-48.117c-6.191-6.19-16.227-6.19-22.418 0l-3.791 3.791 44.326 44.326c14.098 14.098 14.098 36.955 0 51.053-3.139 3.139-6.713 5.574-10.527 7.315 13.316 6.08 29.567 3.644 40.527-7.315 14.098-14.097 14.098-36.955 0-51.053z" fill="#8bd8a5"/></g><circle cx="217.092" cy="242.177" fill="#b3dafe" r="131.64"/><path d="m310.175 149.093c-29.526-29.526-69.588-42.087-108.083-37.697 28.53 3.253 56.201 15.815 78.083 37.697 51.409 51.409 51.409 134.759 0 186.167-21.883 21.883-49.553 34.444-78.083 37.697 38.496 4.39 78.557-8.171 108.083-37.697 51.409-51.408 51.409-134.758 0-186.167z" fill="#8ac9fe"/><circle cx="217.092" cy="242.177" fill="#eaf6ff" r="90.327"/><g><path d="m217.092 257.054c-30.801 0-56.092 23.551-58.872 53.627 15.811 13.6 36.381 21.823 58.872 21.823s43.061-8.223 58.872-21.823c-2.78-30.076-28.071-53.627-58.872-53.627z" fill="#f58a97"/><path d="m217.092 257.054c-5.185 0-10.208.682-15 1.935 3.344.875 6.573 2.035 9.659 3.453 32.122 14.76 25.672 62.689-9.161 68.715-.166.029-.331.057-.497.085 4.881.816 9.887 1.262 15 1.262 22.492 0 43.061-8.223 58.872-21.823-2.781-30.076-28.072-53.627-58.873-53.627z" fill="#f07281"/><path d="m217.092 269.505c-17.229 0-31.197-13.967-31.197-31.197v-11.898c0-17.229 13.967-31.197 31.197-31.197 17.229 0 31.197 13.967 31.197 31.197v11.899c0 17.229-13.968 31.196-31.197 31.196z" fill="#ffcebf"/><path d="m217.092 195.213c-5.438 0-10.549 1.394-15 3.84 9.653 5.304 16.197 15.565 16.197 27.357v11.899c0 11.792-6.544 22.053-16.197 27.357 4.451 2.446 9.562 3.84 15 3.84 17.229 0 31.197-13.967 31.197-31.197v-11.899c0-17.23-13.968-31.197-31.197-31.197z" fill="#ffb09e"/></g></g></g><path d="m72.358 30c-4.142 0-7.5 3.358-7.5 7.5s3.358 7.5 7.5 7.5 7.5-3.358 7.5-7.5-3.358-7.5-7.5-7.5zm-30 0c-4.142 0-7.5 3.358-7.5 7.5s3.358 7.5 7.5 7.5 7.5-3.358 7.5-7.5-3.358-7.5-7.5-7.5zm60 0c-4.142 0-7.5 3.358-7.5 7.5s3.358 7.5 7.5 7.5 7.5-3.358 7.5-7.5-3.358-7.5-7.5-7.5zm209.143 378.076 48.117 48.117c17 16.999 44.661 17 61.66 0 17-17 17-44.66 0-61.661l-48.117-48.117c-7.022-7.02-17.43-8.603-26.005-4.796l-17.549-17.549c17.285-23.643 26.625-52.048 26.625-81.893 0-37.165-14.473-72.106-40.753-98.387-49.895-49.895-129.216-54.587-184.51-10.912-3.25 2.567-3.804 7.284-1.236 10.534 2.567 3.251 7.284 3.804 10.534 1.237 49.324-38.961 120.089-34.771 164.606 9.748 23.447 23.446 36.36 54.62 36.36 87.779s-12.913 64.333-36.36 87.78c-48.402 48.402-127.158 48.402-175.561 0-21.137-21.137-33.939-49.178-36.047-78.955-2.088-29.486 6.371-58.751 23.818-82.401 2.459-3.333 1.75-8.028-1.583-10.487-3.333-2.46-8.029-1.75-10.488 1.583-19.564 26.52-29.05 59.322-26.71 92.364 2.363 33.381 16.712 64.813 40.403 88.504 27.125 27.125 62.756 40.688 98.387 40.688 24.223 0 48.442-6.275 69.992-18.811l19.601 19.601c-3.908 8.678-2.01 19.259 4.816 26.034zm39.242-51.054c3.256-3.257 8.556-3.257 11.812 0l48.117 48.116c11.151 11.152 11.151 29.297 0 40.447-11.15 11.151-29.295 11.152-40.447 0l-48.117-48.117c-3.228-3.196-3.228-8.614 0-11.811zm-50.868-3.004c5.447-4.038 10.668-8.518 15.603-13.454 1.574-1.574 3.104-3.182 4.592-4.817l15.366 15.366-19.233 19.233zm204.625-64.111c4.142 0 7.5-3.357 7.5-7.5v-244.907c0-20.678-16.822-37.5-37.5-37.5h-437c-20.678 0-37.5 16.822-37.5 37.5v437c0 20.678 16.822 37.5 37.5 37.5h437c20.678 0 37.5-16.822 37.5-37.5v-157.093c0-4.143-3.358-7.5-7.5-7.5s-7.5 3.357-7.5 7.5v157.093c0 12.406-10.093 22.5-22.5 22.5h-437c-12.407 0-22.5-10.094-22.5-22.5v-399.5h482v207.407c0 4.143 3.358 7.5 7.5 7.5zm-489.5-229.907v-22.5c0-12.406 10.093-22.5 22.5-22.5h437c12.407 0 22.5 10.094 22.5 22.5v22.5zm202.092 279.958c56.553 0 97.781-46.268 97.781-97.781 0-58.747-47.898-97.238-97.783-97.728-53.804-.529-97.779 43.838-97.779 97.728 0 51.23 44.695 97.781 97.781 97.781zm-50.88-32.449c2.793-16.297 13.461-30.518 28.335-37.779 6.354 4.572 14.137 7.275 22.545 7.275 8.407 0 16.19-2.703 22.543-7.274 14.874 7.261 25.541 21.483 28.333 37.781-14.902 11.621-32.89 17.431-50.878 17.431-17.988-.001-35.975-5.812-50.878-17.434zm27.183-69.2v-11.899c0-13.066 10.63-23.697 23.697-23.697s23.697 10.631 23.697 23.697v11.898c0 13.066-10.63 23.696-23.697 23.696s-23.697-10.629-23.697-23.695zm23.697-78.92c43.812 0 82.792 37.802 82.776 82.789-.007 19.002-6.495 38.004-19.461 53.366-5.132-15.573-15.948-28.95-30.23-37.183 3.56-5.851 5.611-12.716 5.611-20.052v-11.899c0-21.338-17.359-38.697-38.697-38.697s-38.697 17.359-38.697 38.697v11.898c0 7.334 2.051 14.199 5.61 20.05-14.283 8.233-25.1 21.609-30.232 37.181-12.964-15.361-19.451-34.362-19.458-53.363-.015-46.157 37.361-82.787 82.778-82.787z"/></g></svg>